# xmcd CD database file
#
# Track frame offsets:
#	150
#	33878
#	80328
#	96742
#	140150
#	175080
#	220828
#	256168
#
# Disc length: 3832 seconds
#
# Revision: 0
# Processed by: cddbd v1.5.2PL0 Copyright (c) Steve Scherf et al.
# Submitted via: CDex 1.51
#
DISCID=6c0ef608
DTITLE=Jimmy Green - True life stories
DYEAR=2006
DGENRE=Jazz
TTITLE0=Re-Affirmation
TTITLE1=Song for Isaiah
TTITLE2=My ideal
TTITLE3=Evidence True life stories
TTITLE4=How great thou art
TTITLE5=Unconditional
TTITLE6=A closer walk
TTITLE7=Take advantage
EXTD=YEAR: 2006
EXTT0=
EXTT1=
EXTT2=
EXTT3=
EXTT4=
EXTT5=
EXTT6=
EXTT7=
PLAYORDER=
